<?xml version="1.0" encoding="utf-8"?>
<!-- Generator: Adobe Illustrator 18.0.0, SVG Export Plug-In . SVG Version: 6.00 Build 0)  -->
<!DOCTYPE svg PUBLIC "-//W3C//DTD SVG 1.1//EN" "http://www.w3.org/Graphics/SVG/1.1/DTD/svg11.dtd">
<svg version="1.1" id="图层_1" xmlns="http://www.w3.org/2000/svg" xmlns:xlink="http://www.w3.org/1999/xlink" x="0px" y="0px"
	 viewBox="0 0 595.3 841.9" enable-background="new 0 0 595.3 841.9" xml:space="preserve">
<g>
	<g>
		<g>
			<path fill="#37BEF0" d="M210.6,306.4c41.7,0,80.3-13.4,111.8-36.2c12.6-9.1,23.6-19.3,33.5-31.1c-18.5-5.9-37.8-9.1-58.3-9.1
				c-58.3,0-110.6,26-145.7,67.3c14.2,4.7,29.5,7.5,44.9,8.7C201.6,306.4,205.9,306.4,210.6,306.4z"/>
			<path fill="#37BEF0" d="M469.7,338.3c-11-23.2-26.8-43.7-46.1-60.6c-7.5,7.1-12.2,16.9-12.2,28c0,8.7,2.8,16.5,7.5,22.8l0.4,0.4
				c19.3,25.6,30.7,57.5,30.7,92.1c0,84.3-68.5,152.8-152.8,152.8s-152.8-68.5-152.8-152.8c0-26,6.3-50.4,17.7-71.7
				c0-0.4,0.8-1.2,0.8-1.6c2.8-5.1,4.3-11.4,4.3-17.7c0-13-6.7-24.8-16.5-31.5c-16.1,19.3-28.7,42.1-36.2,66.9
				c-5.5,17.7-8.3,36.2-8.3,55.9c0,105.5,85.4,190.9,190.9,190.9s190.9-85.4,190.9-190.9C488.6,391.4,481.9,363.5,469.7,338.3z"/>
		</g>
		<g>
			<path fill="#37BEF0" d="M268.5,412.7c-10.2,0-18.5,8.3-18.5,18.5c0,10.2,8.3,18.5,18.5,18.5s18.5-8.3,18.5-18.5
				C287,420.9,278.7,412.7,268.5,412.7z M268.5,441.8c-5.9,0-10.6-4.7-10.6-10.6c0-5.9,4.7-10.6,10.6-10.6s10.6,4.7,10.6,10.6
				C279.1,437.1,274.4,441.8,268.5,441.8z"/>
			<path fill="#37BEF0" d="M338.2,413.1h7.9v36.2h-7.9V413.1L338.2,413.1z M362.2,392.2v57.1h-7.9v-57.1H362.2L362.2,392.2z
				 M287,413.1h6.7l7.1,24.8l6.7-23.2h7.5l7.1,23.2l7.1-24.8h6.7l-10.6,36.2h-6.3l-7.5-24.8l-7.5,24.8h-6.7L287,413.1L287,413.1z
				 M384.3,412.3c3.9,0,7.5,1.2,10.6,3.1v-23.6h7.9v39c0,10.2-8.3,18.9-18.5,18.9s-18.5-8.3-18.5-18.9
				C365.8,420.9,374,412.3,384.3,412.3L384.3,412.3z M384.3,420.6c-5.9,0-10.6,4.7-10.6,10.6c0,5.9,4.7,10.6,10.6,10.6
				s10.6-4.7,10.6-10.6C394.9,425.3,390.2,420.6,384.3,420.6z"/>
			<path fill="#37BEF0" d="M220.9,392.2c7.5,0,14.2,3.1,19.3,7.9l-4.7,5.1c-3.5-3.5-8.7-5.5-13.8-5.5c-11.4,0-20.9,9.4-20.9,21.3
				c0,6.7,3.1,13,7.9,16.9c10.6,8.7,30.3,3.5,31.5-11.8h-18.5v-7.9h26c0.4,1.6,0.4,3.1,0.4,5.1c0,22.4-24,33.1-41.7,22.4
				c-8.3-5.1-13.8-13.8-13.8-24.8C192.9,405.2,205.5,392.2,220.9,392.2z"/>
		</g>
	</g>
</g>
<g>
	<g>
		<g>
			<g>
				<path fill="#36BDEF" d="M1306.5,154.9c59,0,113.5-19,157.8-51.1c17.5-12.7,33.4-27.4,47.4-43.9c-25.9-8.3-53.5-12.8-82.2-12.8
					c-82.2,0-155.8,36.9-205.2,95c20.2,6.5,41.5,10.6,63.5,12.1C1293.9,154.7,1300.2,154.9,1306.5,154.9z"/>
				<path fill="#36BDEF" d="M1672.2,199.7c-15.7-32.7-37.9-61.7-64.8-85.4c-10.6,9.8-17.2,23.9-17.2,39.4c0,12,3.9,23.1,10.6,32
					c0.2,0.2,0.4,0.5,0.6,0.7c27.3,36.1,43.6,81.1,43.6,129.9c0,119-96.5,215.4-215.4,215.4c-119,0-215.4-96.5-215.4-215.4
					c0-36.5,9.1-71,25.2-101.1c0.2-0.4,1-1.9,1.1-2.2c3.9-7.5,6.2-16,6.2-25.1c0-18.5-9.3-34.8-23.5-44.5
					c-22.9,27.3-40.5,59.3-51.1,94.2c-7.6,24.9-11.7,51.3-11.7,78.7c0,148.7,120.6,269.3,269.3,269.3
					c148.7,0,269.3-120.6,269.3-269.3C1698.8,274.6,1689.3,235,1672.2,199.7z"/>
			</g>
			<g>
				<path fill-rule="evenodd" clip-rule="evenodd" fill="#36BDEF" d="M1388.6,304.7c-14.4,0-26.1,11.7-26.1,26.1
					c0,14.4,11.7,26.1,26.1,26.1c14.4,0,26.1-11.7,26.1-26.1C1414.6,316.4,1403,304.7,1388.6,304.7z M1388.6,345.6
					c-8.2,0-14.8-6.6-14.8-14.8c0-8.2,6.6-14.8,14.8-14.8c8.2,0,14.8,6.6,14.8,14.8C1403.4,339,1396.7,345.6,1388.6,345.6z"/>
				<path fill-rule="evenodd" clip-rule="evenodd" fill="#36BDEF" d="M1486.9,305.3h11.2v51h-11.2V305.3L1486.9,305.3z
					 M1520.7,275.8v80.5h-11.2v-80.5H1520.7L1520.7,275.8z M1414.2,305.3h9.5l10.3,35l9.6-32.8h10.8l9.8,32.8l10.3-35h9.5l-15,51
					h-9.5l-10.4-35.1l-10.3,35.1h-9.5L1414.2,305.3L1414.2,305.3z M1551.8,304.4c5.5,0,10.6,1.7,14.9,4.7v-33.3h11.2v55
					c0,14.6-11.7,26.4-26.1,26.4c-14.4,0-26.1-11.8-26.1-26.4C1525.7,316.2,1537.4,304.4,1551.8,304.4L1551.8,304.4z M1551.8,316
					c-8.2,0-14.8,6.6-14.8,14.8c0,8.2,6.6,14.8,14.8,14.8c8.2,0,14.8-6.6,14.8-14.8C1566.6,322.6,1559.9,316,1551.8,316z"/>
				<path fill-rule="evenodd" clip-rule="evenodd" fill="#36BDEF" d="M1321.3,275.6c10.6,0,20.2,4.3,27.4,11.2l-6.9,7.4
					c-5.2-4.9-12.1-7.9-19.7-7.9c-16.1,0-29.2,13.5-29.2,30.2c0,9.7,4.4,18.3,11.2,23.8c15.2,12.3,42.5,5.3,44.2-16.5H1322v-11.1
					h36.9c0.4,2.3,0.6,4.6,0.6,7c0,31.5-33.9,46.7-58.6,31.6c-11.5-7-19.4-19.6-19.4-34.8C1281.5,293.9,1299.3,275.6,1321.3,275.6z"
					/>
			</g>
		</g>
	</g>
	<g>
		<path fill="#36BDEF" d="M1018.4,680.6c-0.1,2.1-0.1,5.3-0.4,9.1c0.9,6.7,4.9,37.1,28.8,47.8c-0.9,0.7-1.8,1.7-2.3,2.6
			c-18.3-8.4-25-28-27.8-40.4c-2.6,14.2-9.5,31.5-27.5,40.6c-0.6-0.8-1.7-1.7-2.5-2.3c28-13.7,28.2-47.8,28.3-57.3H1018.4z"/>
		<path fill="#36BDEF" d="M1128.7,732v3.2h-59V732h27.6v-40.6H1073v-3.3h52.6v3.3h-24.9V732H1128.7z"/>
		<path fill="#36BDEF" d="M1178.9,711.5c-2-1.7-7.9-5.9-11.4-8.1c-2.1,4-6.1,8.1-13.7,11.4c-0.5-0.7-1.4-1.7-2.1-2.3
			c9.5-3.9,13-8.8,14.3-13.3h-13.8v-2.8h14.3c0.1-1.1,0.1-2.1,0.1-3v-4.5h-7c-1.3,2.5-2.9,4.7-4.5,6.5c-0.5-0.3-1.9-1.3-2.7-1.7
			c3.3-3.5,6-8.4,7.7-13.5l3,0.7c-0.6,1.7-1.3,3.6-2.1,5.3h19.1v2.8h-10.5v4.5c0,1-0.1,1.9-0.1,3h12.5v2.8h-12.9
			c-0.2,0.7-0.4,1.3-0.6,2c2.8,1.5,10.6,6.5,12.5,7.9L1178.9,711.5z M1162.3,713.7h39.4v26.7h-3.3V738h-33v2.6h-3.1V713.7z
			 M1165.4,716.5v7.9h33v-7.9H1165.4z M1198.4,735.1V727h-33v8.1H1198.4z M1207.3,686.1v21.8h-22.2v-21.8H1207.3z M1204.1,689h-15.9
			v15.9h15.9V689z"/>
		<path fill="#36BDEF" d="M1254.7,684.2c3.7,4.5,7.6,10.5,9.1,14.4l-2.6,1.3c-0.5-1.1-1.1-2.3-1.7-3.6c-19.6,1.3-21.6,1.6-22.8,2.1
			c-0.1-0.7-0.7-2.4-1.1-3.2c0.9-0.1,1.9-1.1,2.9-2.7c1.3-1.3,5.1-6.9,7.5-12.3l3.2,1.2c-2.7,4.9-5.8,9.7-8.9,13.4l17.7-1
			c-1.7-2.9-3.8-5.9-5.8-8.4L1254.7,684.2z M1261.1,736.2c0,2.1-0.5,3.1-1.9,3.7c-1.6,0.5-4.5,0.6-8.7,0.6c-0.1-0.9-0.7-2.2-1.1-3.1
			c3.7,0.1,6.6,0.1,7.5,0c0.9,0,1.1-0.2,1.1-1.1v-9.8h-16.6v14.1h-3.1v-36.8h22.8V736.2z M1241.4,706.6v7.1h16.6v-7.1H1241.4z
			 M1257.9,723.8v-7.4h-16.6v7.4H1257.9z M1275,709c-5.5,0-7.1-1.1-7.1-5.4v-23.3h3.1v12.1c6.3-2,13.3-4.5,17.5-6.7l2.3,2.4
			c-5.3,2.4-13,5-19.8,6.9v8.5c0,2,0.7,2.5,4,2.5h12.5c2.8,0,3.3-1.2,3.6-8.1c0.8,0.5,2,1,3,1.3c-0.5,7.8-1.5,9.9-6.4,9.9H1275z
			 M1287.9,737.1c3,0,3.5-1.4,3.8-9.3c0.8,0.6,2,1.1,2.9,1.2c-0.5,8.8-1.5,10.9-6.6,10.9h-12.9c-5.6,0-7.2-1.1-7.2-5.5v-23.3h3.2
			v11.4c6.7-2,14.3-4.7,18.4-7.3l2.1,2.5c-5.1,3.1-13.5,5.7-20.6,7.6v9.3c0,2,0.7,2.5,4.1,2.5H1287.9z"/>
		<path fill="#36BDEF" d="M1368.6,710.6c3,0,3.5-0.6,3.7-5c0.8,0.5,2.1,1,3,1.2c-0.5,5.4-1.6,6.7-6.5,6.7h-16.2
			c-6.5,0-8.2-0.9-8.2-5v-2.9l-14.2,1.3l-0.3-2.6l14.5-1.4v-5.9h-18.7v13.3c0,8.9-0.8,21.4-6.3,30c-0.5-0.5-1.9-1.5-2.6-1.8
			c5.2-8.4,5.7-19.9,5.7-28.2v-16.1h2v-0.1h19.9v-13.9h3.2v5.7h23.6v2.9h-23.6v5.3h25l0.4-0.1l2.3,0.8c-1.2,3.3-2.7,7.1-4.1,9.5
			l-2.8-0.9c0.9-1.7,1.9-4.1,2.7-6.3h-23.6v5.7l17.3-1.7l0.3,2.6l-17.7,1.7v3.3c0,1.7,0.7,2.1,5,2.1H1368.6z M1357.4,736.1h17.9v2.9
			h-49.6v-2.9h16.3v-20h3.1v20h9.3v-20h3.1V736.1z M1332.4,719.3c2.5,3.8,5.1,8.8,6.1,12l-2.8,1.3c-0.9-3.2-3.4-8.4-5.9-12.2
			L1332.4,719.3z M1370.3,720.4c-2.4,4.1-5.5,9.2-8.2,12.4l-2.2-1.2c2.5-3.3,5.7-8.9,7.5-12.7L1370.3,720.4z"/>
		<path fill="#36BDEF" d="M1419.1,712.9l-7.5,2.7v20.8c0,2.1-0.6,3-2,3.6c-1.3,0.5-3.7,0.6-7.9,0.6c-0.1-0.8-0.6-2.1-1.1-3
			c3.2,0.1,5.9,0.1,6.7,0c0.9,0,1.3-0.3,1.3-1.3v-19.8c-3.3,1.2-6.3,2.3-9,3.1l-1-3.1c2.7-0.9,6.2-2,10-3.3v-16.1h-9.1v-3h9.1v-13.9
			h3v13.9h6.9v3h-6.9v15.1l7-2.4L1419.1,712.9z M1439.4,717c0.3,1,0.6,2.3,0.9,2.9c-14.7,10.7-16.4,12-17.5,13.4l-0.1-0.4
			c-0.1,0.1-0.1,0.2-0.1,0.3c-0.3-0.7-1.3-1.9-1.9-2.5c1.2-0.8,3.3-2.7,3.3-5.7v-42.2h3.1v42.8L1439.4,717z M1439.3,707.8
			c-1.3-5.3-5.1-13.9-8.9-20.3l2.7-1.1c3.9,6.4,7.8,14.9,9.1,20L1439.3,707.8z M1457.4,738.3c-1.5-5.1-4.9-13.2-8.5-20.2
			c-2.9,9.3-7.3,16.5-14.9,22.1c-0.5-0.7-1.8-1.9-2.5-2.5c14.9-10.3,17.7-28.6,18.7-55.6l3.3,0.1c-0.5,12.3-1.4,22.8-3.5,31.6
			c4.2,7.6,8.5,17.2,10.3,22.8L1457.4,738.3z"/>
		<path fill="#36BDEF" d="M1541.8,735.2v3.1H1483v-3.1h27.8v-19h-20.8v-3.1h20.8v-16.3h-16.8c-2.2,4.5-4.7,8.5-7.5,11.7
			c-0.6-0.5-2.1-1.4-2.9-1.9c5.6-6.1,9.9-15.3,12.5-25l3.3,0.7c-1.1,3.9-2.5,7.8-4.1,11.5h15.5v-13.5h3.3v13.5h24.8v3.1H1514v16.3
			h22.4v3.1H1514v19H1541.8z"/>
		<path fill="#36BDEF" d="M1597.8,681.5c-0.3,0.5-0.7,1-1.1,1.5c6.1,7.5,18,15,28.6,18c-0.9,0.7-1.9,2.1-2.5,3.1
			c-10.1-3.4-21.3-10.9-28-18.8c-7,8.2-17.9,15.6-28.5,19.2c-0.4-1-1.1-2.3-1.9-3.1c12-3.5,24.5-12.4,30.6-21.6L1597.8,681.5z
			 M1590,729.5h-16.1v5.9h-3.1v-27.9h19.2V729.5z M1573.9,710.4v16.1h13.1v-16.1H1573.9z M1607.3,701h-25.4v-3h25.4V701z
			 M1619.3,726.5c0,2.1-0.5,3.1-2.1,3.7c-1.7,0.6-4.8,0.6-10.2,0.6c-0.1-0.9-0.7-2.1-1.1-3.1c4.5,0.1,7.9,0.1,8.9,0
			c1.1-0.1,1.3-0.4,1.3-1.3v-16.1h-14.8v30.3h-3.1v-33.3h21.1V726.5z"/>
		<path fill="#36BDEF" d="M1701.2,736.5c2.7,0,3.1-1.5,3.4-10.6c0.8,0.6,2.1,1.1,3,1.5c-0.4,9.7-1.4,12.2-6.2,12.2H1691
			c-5,0-6.3-1.1-6.3-5.4v-21.5h-14.4c-1.5,13.7-5.3,23.4-20.4,28.4c-0.4-0.8-1.3-2-2-2.7c14.5-4.3,17.9-13.4,19.1-25.7h-18.3v-3.1
			h27.2v-14.9h-15.1c-1.8,4-3.9,7.8-6.3,10.7c-0.7-0.5-2-1.2-2.7-1.5c4.7-5.7,8.2-14.5,9.9-21.5l3.2,0.7c-0.7,2.7-1.7,5.6-2.8,8.5
			h13.8v-11.2h3.2v11.2h22.9v3.1h-22.9v14.9h27.4v3.1h-18.7v21.6c0,1.9,0.6,2.3,3.4,2.3H1701.2z"/>
		<path fill="#36BDEF" d="M1750.9,695.5c-2.1,3.5-4.7,6.9-7.5,10.1V741h-3.2v-32c-3,3.1-6.1,6-9.1,8.3c-0.5-0.6-1.7-1.9-2.4-2.5
			c7-5,14.5-12.8,19.2-20.5L1750.9,695.5z M1748.3,681.5c-4.3,5.7-10.9,11.9-16.8,16.1c-0.5-0.7-1.5-1.9-2.1-2.5
			c5.7-3.9,12.3-9.9,15.7-14.8L1748.3,681.5z M1790.2,705.8h-10.7v30.1c0,2.3-0.7,3.3-2.5,3.9c-1.9,0.5-5.5,0.5-12.1,0.5
			c-0.2-0.8-0.7-2.1-1.3-2.9c5.2,0.2,9.8,0.1,11.1,0.1c1.2-0.1,1.7-0.4,1.7-1.5v-30.1h-23.8v-3.1h37.7V705.8z M1788,687.6h-32.6
			v-3.1h32.6V687.6z"/>
		<path fill="#36BDEF" d="M1846.7,705.3c-4.1,2.9-8.3,5.5-12.7,8h29.8v27h-3.3v-2.1h-29.4v2.3h-3.2v-24c-4.4,2.2-8.9,4.3-13.4,6
			c-0.5-0.7-1.5-1.9-2.2-2.7c10.3-3.7,20.2-8.7,29.2-14.6h-28v-2.9h23.7v-10.1h-17.8v-2.9h17.8v-9.1h3.2v9.1h17.7v2.5
			c3-2.9,5.7-5.9,8.1-9.1l2.7,1.6c-5.2,6.6-11.5,12.7-18.3,18h21.7v2.9H1846.7z M1860.5,716.2h-29.4v7.9h29.4V716.2z M1860.5,735.3
			v-8.5h-29.4v8.5H1860.5z M1845.6,702.4c4.3-3.1,8.3-6.5,12-10.1h-17.3v10.1H1845.6z"/>
	</g>
	<g>
		<path fill="#36BDEF" d="M987.7,768.1h4v36h15.3v3.9h-19.3V768.1z"/>
		<path fill="#36BDEF" d="M1041,798.1l3.2,1.7c-1.1,2.1-2.3,3.7-3.6,5c-1.4,1.3-2.9,2.2-4.6,2.9c-1.7,0.7-3.7,1-5.8,1
			c-4.8,0-8.6-1.6-11.3-4.7c-2.7-3.2-4.1-6.7-4.1-10.7c0-3.7,1.1-7.1,3.4-10c2.9-3.7,6.8-5.6,11.7-5.6c5,0,9,1.9,12,5.7
			c2.1,2.7,3.2,6.1,3.3,10.1h-26.5c0.1,3.4,1.2,6.2,3.3,8.4c2.1,2.2,4.7,3.3,7.8,3.3c1.5,0,3-0.3,4.4-0.8c1.4-0.5,2.6-1.2,3.6-2.1
			C1038.8,801.5,1039.9,800.1,1041,798.1z M1041,790.2c-0.5-2-1.2-3.6-2.2-4.9c-1-1.2-2.3-2.2-3.8-2.9c-1.6-0.7-3.3-1.1-5-1.1
			c-2.9,0-5.4,0.9-7.5,2.8c-1.5,1.4-2.7,3.4-3.4,6.1H1041z"/>
		<path fill="#36BDEF" d="M1085.1,778.4v29.5h-3.7v-5.1c-1.6,1.9-3.4,3.4-5.4,4.4c-2,1-4.1,1.5-6.5,1.5c-4.2,0-7.7-1.5-10.7-4.5
			c-3-3-4.4-6.7-4.4-11c0-4.2,1.5-7.9,4.5-10.9c3-3,6.6-4.5,10.8-4.5c2.4,0,4.6,0.5,6.6,1.5c2,1,3.7,2.6,5.2,4.6v-5.4H1085.1z
			 M1069.9,781.3c-2.1,0-4.1,0.5-5.8,1.6c-1.8,1-3.2,2.5-4.3,4.4s-1.6,3.9-1.6,6c0,2.1,0.5,4.1,1.6,6c1.1,1.9,2.5,3.4,4.3,4.4
			s3.7,1.6,5.8,1.6c2.1,0,4-0.5,5.9-1.6c1.9-1,3.3-2.5,4.3-4.3c1-1.8,1.5-3.8,1.5-6c0-3.4-1.1-6.3-3.4-8.6
			C1076,782.5,1073.2,781.3,1069.9,781.3z"/>
		<path fill="#36BDEF" d="M1126.5,767v40.9h-3.7v-5.1c-1.6,1.9-3.4,3.4-5.4,4.4c-2,1-4.1,1.5-6.5,1.5c-4.2,0-7.7-1.5-10.7-4.5
			c-3-3-4.4-6.7-4.4-11c0-4.2,1.5-7.9,4.5-10.9c3-3,6.6-4.5,10.8-4.5c2.4,0,4.6,0.5,6.6,1.5c2,1,3.7,2.6,5.2,4.6V767H1126.5z
			 M1111.4,781.3c-2.1,0-4.1,0.5-5.8,1.6c-1.8,1-3.2,2.5-4.3,4.4c-1.1,1.9-1.6,3.9-1.6,6c0,2.1,0.5,4.1,1.6,6
			c1.1,1.9,2.5,3.4,4.3,4.4s3.7,1.6,5.8,1.6c2.1,0,4-0.5,5.9-1.6c1.9-1,3.3-2.5,4.3-4.3c1-1.8,1.5-3.8,1.5-6c0-3.4-1.1-6.3-3.4-8.6
			C1117.4,782.5,1114.6,781.3,1111.4,781.3z"/>
		<path fill="#36BDEF" d="M1139.9,766.3c0.9,0,1.6,0.3,2.2,0.9c0.6,0.6,0.9,1.4,0.9,2.2c0,0.9-0.3,1.6-0.9,2.2
			c-0.6,0.6-1.4,0.9-2.2,0.9c-0.8,0-1.6-0.3-2.2-0.9c-0.6-0.6-0.9-1.3-0.9-2.2c0-0.9,0.3-1.6,0.9-2.2
			C1138.3,766.6,1139,766.3,1139.9,766.3z M1138,778.4h3.8v29.5h-3.8V778.4z"/>
		<path fill="#36BDEF" d="M1153.1,778.4h3.8v5.3c1.5-2,3.2-3.5,5-4.5c1.8-1,3.9-1.5,6-1.5c2.2,0,4.2,0.6,5.9,1.7
			c1.7,1.1,3,2.6,3.8,4.5c0.8,1.9,1.2,4.9,1.2,8.9v15.2h-3.8v-14.1c0-3.4-0.1-5.7-0.4-6.8c-0.4-2-1.3-3.4-2.5-4.4
			c-1.2-1-2.9-1.5-4.9-1.5c-2.3,0-4.3,0.8-6.2,2.3c-1.8,1.5-3,3.4-3.6,5.6c-0.4,1.5-0.5,4.1-0.5,8v10.8h-3.8V778.4z"/>
		<path fill="#36BDEF" d="M1215.9,778.4h3.8v23.5c0,4.1-0.4,7.2-1.1,9.1c-1,2.7-2.7,4.8-5.2,6.3s-5.4,2.2-8.9,2.2
			c-2.5,0-4.8-0.4-6.8-1.1c-2-0.7-3.7-1.7-4.9-2.9c-1.3-1.2-2.4-3-3.5-5.3h4.1c1.1,2,2.6,3.4,4.3,4.3c1.8,0.9,4,1.4,6.6,1.4
			c2.6,0,4.8-0.5,6.6-1.4c1.8-1,3.1-2.2,3.8-3.6c0.8-1.5,1.1-3.8,1.1-7.1v-1.5c-1.4,1.8-3.2,3.2-5.2,4.2c-2.1,1-4.3,1.5-6.6,1.5
			c-2.7,0-5.3-0.7-7.7-2c-2.4-1.4-4.2-3.2-5.5-5.4c-1.3-2.3-2-4.8-2-7.5s0.7-5.3,2-7.6c1.4-2.4,3.2-4.2,5.6-5.6
			c2.4-1.4,4.9-2.1,7.6-2.1c2.2,0,4.3,0.5,6.2,1.4c1.9,0.9,3.8,2.4,5.5,4.5V778.4z M1204.7,781.3c-2.2,0-4.1,0.5-6,1.6
			c-1.8,1-3.3,2.5-4.3,4.3c-1,1.8-1.6,3.8-1.6,5.9c0,3.2,1.1,5.9,3.3,8c2.2,2.1,5,3.2,8.4,3.2c3.5,0,6.3-1,8.4-3.1
			c2.1-2.1,3.2-4.9,3.2-8.3c0-2.2-0.5-4.2-1.5-5.9c-1-1.7-2.4-3.1-4.1-4.1C1208.7,781.8,1206.7,781.3,1204.7,781.3z"/>
		<path fill="#36BDEF" d="M1284.3,768.1h4.3l13.2,30.8l13.4-30.8h4.3l-17.4,39.9h-0.9L1284.3,768.1z"/>
		<path fill="#36BDEF" d="M1330.5,766.3c0.9,0,1.6,0.3,2.2,0.9c0.6,0.6,0.9,1.4,0.9,2.2c0,0.9-0.3,1.6-0.9,2.2
			c-0.6,0.6-1.4,0.9-2.2,0.9c-0.8,0-1.6-0.3-2.2-0.9c-0.6-0.6-0.9-1.3-0.9-2.2c0-0.9,0.3-1.6,0.9-2.2
			C1328.9,766.6,1329.6,766.3,1330.5,766.3z M1328.6,778.4h3.8v29.5h-3.8V778.4z"/>
		<path fill="#36BDEF" d="M1342.3,778.4h3.9v4.3c1.2-1.7,2.4-3,3.7-3.8c1.3-0.8,2.6-1.3,4-1.3c1,0,2.2,0.3,3.4,1l-2,3.2
			c-0.8-0.3-1.5-0.5-2-0.5c-1.3,0-2.5,0.5-3.7,1.6c-1.2,1-2.1,2.7-2.7,4.8c-0.5,1.7-0.7,5.1-0.7,10.2v10h-3.9V778.4z"/>
		<path fill="#36BDEF" d="M1367.2,767.5h3.8v11h6v3.3h-6v26.2h-3.8v-26.2h-5.2v-3.3h5.2V767.5z"/>
		<path fill="#36BDEF" d="M1385.6,778.4h3.8v13.8c0,3.4,0.2,5.7,0.5,6.9c0.5,1.8,1.6,3.2,3.1,4.3c1.5,1,3.4,1.6,5.5,1.6
			c2.1,0,3.9-0.5,5.4-1.5c1.5-1,2.5-2.4,3.1-4c0.4-1.1,0.6-3.6,0.6-7.2v-13.8h3.9v14.5c0,4.1-0.5,7.1-1.4,9.2
			c-1,2.1-2.4,3.7-4.3,4.8c-1.9,1.2-4.3,1.7-7.2,1.7s-5.3-0.6-7.2-1.7c-1.9-1.2-3.4-2.8-4.3-4.9c-0.9-2.1-1.4-5.2-1.4-9.4V778.4z"/>
		<path fill="#36BDEF" d="M1452.7,778.4v29.5h-3.7v-5.1c-1.6,1.9-3.4,3.4-5.4,4.4c-2,1-4.1,1.5-6.5,1.5c-4.2,0-7.7-1.5-10.7-4.5
			c-3-3-4.4-6.7-4.4-11c0-4.2,1.5-7.9,4.5-10.9c3-3,6.6-4.5,10.8-4.5c2.4,0,4.6,0.5,6.6,1.5c2,1,3.7,2.6,5.2,4.6v-5.4H1452.7z
			 M1437.5,781.3c-2.1,0-4.1,0.5-5.8,1.6c-1.8,1-3.2,2.5-4.3,4.4s-1.6,3.9-1.6,6c0,2.1,0.5,4.1,1.6,6c1.1,1.9,2.5,3.4,4.3,4.4
			c1.8,1.1,3.7,1.6,5.8,1.6c2.1,0,4-0.5,5.9-1.6c1.9-1,3.3-2.5,4.3-4.3c1-1.8,1.5-3.8,1.5-6c0-3.4-1.1-6.3-3.4-8.6
			C1443.6,782.5,1440.8,781.3,1437.5,781.3z"/>
		<path fill="#36BDEF" d="M1464.1,767h3.8v40.9h-3.8V767z"/>
		<path fill="#36BDEF" d="M1535.4,768.1h4v36h15.3v3.9h-19.3V768.1z"/>
		<path fill="#36BDEF" d="M1565.1,766.3c0.9,0,1.6,0.3,2.2,0.9c0.6,0.6,0.9,1.4,0.9,2.2c0,0.9-0.3,1.6-0.9,2.2
			c-0.6,0.6-1.4,0.9-2.2,0.9c-0.8,0-1.6-0.3-2.2-0.9c-0.6-0.6-0.9-1.3-0.9-2.2c0-0.9,0.3-1.6,0.9-2.2
			C1563.6,766.6,1564.3,766.3,1565.1,766.3z M1563.3,778.4h3.8v29.5h-3.8V778.4z"/>
		<path fill="#36BDEF" d="M1590.5,767v3.7c-1.4-0.6-2.6-0.9-3.6-0.9c-0.7,0-1.4,0.2-1.8,0.4c-0.5,0.3-0.8,0.6-0.9,1
			c-0.1,0.4-0.2,1.4-0.2,3.1l0,4h6.2v3.3h-6.2l0,26.2h-3.8v-26.2h-3.9v-3.3h3.9v-4.6c0-2.1,0.2-3.6,0.6-4.5c0.4-0.9,1-1.6,2-2.2
			c0.9-0.5,2.1-0.8,3.4-0.8C1587.3,766.3,1588.8,766.5,1590.5,767z"/>
		<path fill="#36BDEF" d="M1624.1,798.1l3.2,1.7c-1.1,2.1-2.3,3.7-3.6,5c-1.4,1.3-2.9,2.2-4.6,2.9c-1.7,0.7-3.7,1-5.8,1
			c-4.8,0-8.6-1.6-11.3-4.7c-2.7-3.2-4.1-6.7-4.1-10.7c0-3.7,1.1-7.1,3.4-10c2.9-3.7,6.8-5.6,11.7-5.6c5,0,9,1.9,12,5.7
			c2.1,2.7,3.2,6.1,3.3,10.1h-26.5c0.1,3.4,1.2,6.2,3.3,8.4c2.1,2.2,4.7,3.3,7.8,3.3c1.5,0,3-0.3,4.4-0.8c1.4-0.5,2.6-1.2,3.6-2.1
			C1621.9,801.5,1622.9,800.1,1624.1,798.1z M1624.1,790.2c-0.5-2-1.2-3.6-2.2-4.9c-1-1.2-2.3-2.2-3.8-2.9c-1.6-0.7-3.3-1.1-5-1.1
			c-2.9,0-5.4,0.9-7.5,2.8c-1.5,1.4-2.7,3.4-3.4,6.1H1624.1z"/>
		<path fill="#36BDEF" d="M1712.8,767c6,0,11.1,2,15.2,6c4.1,4,6.1,9,6.1,14.9c0,5.8-2,10.8-6.1,14.9s-9,6.1-14.9,6.1
			c-5.9,0-10.9-2-15-6.1c-4.1-4.1-6.1-8.9-6.1-14.7c0-3.8,0.9-7.4,2.8-10.7c1.9-3.3,4.4-5.8,7.6-7.7C1705.6,768,1709,767,1712.8,767
			z M1713,770.9c-3,0-5.7,0.8-8.4,2.3c-2.6,1.5-4.7,3.6-6.2,6.2c-1.5,2.6-2.2,5.5-2.2,8.7c0,4.7,1.6,8.7,4.9,12s7.2,4.9,11.9,4.9
			c3.1,0,6-0.7,8.6-2.3s4.7-3.6,6.2-6.2c1.5-2.6,2.2-5.5,2.2-8.7c0-3.2-0.7-6-2.2-8.6s-3.6-4.6-6.2-6.1
			C1718.8,771.7,1716,770.9,1713,770.9z"/>
		<path fill="#36BDEF" d="M1757,767v3.7c-1.4-0.6-2.6-0.9-3.6-0.9c-0.7,0-1.4,0.2-1.8,0.4c-0.5,0.3-0.8,0.6-0.9,1
			c-0.1,0.4-0.2,1.4-0.2,3.1l0,4h6.2v3.3h-6.2l0,26.2h-3.8v-26.2h-3.9v-3.3h3.9v-4.6c0-2.1,0.2-3.6,0.6-4.5c0.4-0.9,1-1.6,2-2.2
			c0.9-0.5,2.1-0.8,3.4-0.8C1753.8,766.3,1755.3,766.5,1757,767z"/>
		<path fill="#36BDEF" d="M1839.2,768.1l18.6,39.9h-4.3l-6.3-13.1h-17.2l-6.2,13.1h-4.4l18.8-39.9H1839.2z M1838.7,776.5l-6.8,14.4
			h13.6L1838.7,776.5z"/>
		<path fill="#36BDEF" d="M1868.2,766.3c0.9,0,1.6,0.3,2.2,0.9c0.6,0.6,0.9,1.4,0.9,2.2c0,0.9-0.3,1.6-0.9,2.2
			c-0.6,0.6-1.4,0.9-2.2,0.9c-0.8,0-1.6-0.3-2.2-0.9c-0.6-0.6-0.9-1.3-0.9-2.2c0-0.9,0.3-1.6,0.9-2.2
			C1866.6,766.6,1867.3,766.3,1868.2,766.3z M1866.3,778.4h3.8v29.5h-3.8V778.4z"/>
	</g>
</g>
</svg>
